<svg 
 xmlns="http://www.w3.org/2000/svg"
 xmlns:xlink="http://www.w3.org/1999/xlink"
 width="200px" height="200px">
<path fill-rule="evenodd"  fill="rgb(45, 184, 65)"
 d="M100.002,200.001 C44.772,200.001 0.001,155.230 -0.001,100.001 C-0.001,44.772 44.772,-0.001 100.002,-0.001 C155.228,-0.001 200.001,44.772 200.001,99.999 C200.001,155.230 155.230,200.001 100.002,200.001 ZM100.095,9.538 C50.084,9.538 9.540,50.080 9.540,100.094 C9.540,150.108 50.084,190.652 100.095,190.652 C150.109,190.652 190.650,150.108 190.650,100.094 C190.650,50.080 150.109,9.538 100.095,9.538 ZM79.865,150.070 C79.865,150.070 79.882,150.049 79.882,150.049 C79.882,150.049 36.796,119.046 36.796,119.046 C36.796,119.046 45.488,106.963 45.488,106.963 C45.488,106.963 88.576,137.967 88.576,137.967 C88.576,137.967 146.974,56.803 146.974,56.803 C146.974,56.803 159.055,65.497 159.055,65.497 C159.055,65.497 91.946,158.764 91.946,158.764 C91.946,158.764 79.865,150.070 79.865,150.070 Z"/>
</svg>